<svg width="406" height="406" viewBox="0 0 406 406" fill="none" xmlns="http://www.w3.org/2000/svg">
<g filter="url(#filter0_d_2_48)">
<path d="M37.9846 160.295C37.9846 117.031 37.9846 95.3995 46.5378 78.934C53.7454 65.0587 65.0588 53.7454 78.934 46.5377C95.3995 37.9846 117.031 37.9846 160.295 37.9846H244.874C288.138 37.9846 309.77 37.9846 326.235 46.5377C340.111 53.7454 351.424 65.0587 358.632 78.934C367.185 95.3995 367.185 117.031 367.185 160.295V244.874C367.185 288.138 367.185 309.77 358.632 326.235C351.424 340.111 340.111 351.424 326.235 358.632C309.77 367.185 288.138 367.185 244.874 367.185H160.295C117.031 367.185 95.3995 367.185 78.934 358.632C65.0588 351.424 53.7454 340.111 46.5378 326.235C37.9846 309.77 37.9846 288.138 37.9846 244.874V160.295Z" fill="#060A15"/>
</g>
<mask id="mask0_2_48" style="mask-type:alpha" maskUnits="userSpaceOnUse" x="37" y="37" width="331" height="331">
<rect x="37.9846" y="37.9846" width="329.2" height="329.2" rx="75.9693" fill="white"/>
</mask>
<g mask="url(#mask0_2_48)">
<mask id="mask1_2_48" style="mask-type:alpha" maskUnits="userSpaceOnUse" x="0" y="0" width="405" height="405">
<rect width="405" height="405" fill="#DE6F8E"/>
</mask>
<g mask="url(#mask1_2_48)">
<path d="M0 0H405V405H0V0Z" fill="#F7D9FF"/>
<path d="M385.784 202.5C398.032 265.425 492.841 376.494 534.439 409.434L-15.6258 421.682L-7.17953 -19.8486C51.2407 -18.3001 172.624 -13.8642 179.272 -1.05562C210.946 59.9689 268.803 44.7655 300.688 65.6701C332.573 86.5747 373.537 139.575 385.784 202.5Z" fill="#FFB16B"/>
<path d="M368.681 207.99C396.553 264.581 486.295 363.473 527.682 405.845L-7.17969 412.391V-7.60132C43.0758 -7.31978 147.345 -5.23635 162.38 0.844981C181.173 8.44665 168.081 44.1323 232.906 65.6703C297.732 87.2084 333.84 137.253 368.681 207.99Z" fill="#FF8786"/>
<path d="M524.304 405.422H0.210968V0H52.578C54.6192 1.83003 64.1072 9.50209 85.7297 25.5501C112.758 45.61 126.483 78.7617 144.22 98.8217C161.958 118.882 204.4 120.36 256.767 137.252C309.134 154.145 348.41 188.986 369.314 235.229C386.038 272.224 479.609 364.106 524.304 405.422Z" fill="#FF677D"/>
<path d="M-0.633698 405.423V54.9011C15.2735 64.4032 54.1828 90.629 82.5623 119.515C118.037 155.623 152.667 152.667 242.831 192.787C332.995 232.907 322.226 238.186 354.744 292.876C380.759 336.627 465.672 386.137 504.877 405.423H-0.633698Z" fill="#FB25DF"/>
<path d="M-0.633698 407.745V145.065C17.8778 174.346 74.4961 199.122 97.9768 215.17C127.328 235.23 226.994 236.074 264.58 252.967C302.166 269.859 321.593 323.071 339.33 349.888C353.52 371.342 416.613 397.399 446.387 407.745H-0.633698Z" fill="#BE29FF"/>
<path d="M-0.633698 233.54V406.267H328.561C301.744 406.267 293.086 356.223 257.612 323.704C218.844 288.167 155.834 278.305 97.3434 278.305C57.4236 278.305 24.0013 259.02 -0.633698 233.54Z" fill="#7937FF"/>
<path d="M-0.633698 346.932V404.789C53.3522 407.816 148.232 404.789 148.232 404.789C135.141 395.71 137.252 378.395 81.9289 375.438C37.6703 373.073 8.44607 355.449 -0.633698 346.932Z" fill="#5D22FF"/>
</g>
</g>
<defs>
<filter id="filter0_d_2_48" x="22.1577" y="28.4885" width="360.854" height="360.854" filterUnits="userSpaceOnUse" color-interpolation-filters="sRGB">
<feFlood flood-opacity="0" result="BackgroundImageFix"/>
<feColorMatrix in="SourceAlpha" type="matrix" values="0 0 0 0 0 0 0 0 0 0 0 0 0 0 0 0 0 0 127 0" result="hardAlpha"/>
<feOffset dy="6.33077"/>
<feGaussianBlur stdDeviation="7.91347"/>
<feColorMatrix type="matrix" values="0 0 0 0 0 0 0 0 0 0 0 0 0 0 0 0 0 0 0.2 0"/>
<feBlend mode="normal" in2="BackgroundImageFix" result="effect1_dropShadow_2_48"/>
<feBlend mode="normal" in="SourceGraphic" in2="effect1_dropShadow_2_48" result="shape"/>
</filter>
</defs>
</svg>
